<svg width="247" height="82" viewBox="0 0 247 82" fill="none" xmlns="http://www.w3.org/2000/svg">
<path d="M90.3369 40.6312C90.3369 38.0084 90.9226 35.6657 92.0939 33.603C93.2907 31.515 94.9077 29.898 96.9449 28.7521C99.0075 27.5807 101.312 26.9951 103.858 26.9951C106.838 26.9951 109.448 27.759 111.689 29.2868C113.93 30.8147 115.496 32.9282 116.387 35.6275H110.237C109.626 34.3542 108.76 33.3993 107.64 32.7627C106.545 32.1261 105.272 31.8078 103.82 31.8078C102.267 31.8078 100.879 32.177 99.6568 32.9155C98.46 33.6285 97.5178 34.6471 96.8303 35.9712C96.1682 37.2954 95.8372 38.8487 95.8372 40.6312C95.8372 42.3883 96.1682 43.9416 96.8303 45.2912C97.5178 46.6153 98.46 47.6466 99.6568 48.3851C100.879 49.0981 102.267 49.4546 103.82 49.4546C105.272 49.4546 106.545 49.1363 107.64 48.4997C108.76 47.8376 109.626 46.87 110.237 45.5968H116.387C115.496 48.3214 113.93 50.4477 111.689 51.9756C109.473 53.478 106.863 54.2292 103.858 54.2292C101.312 54.2292 99.0075 53.6562 96.9449 52.5103C94.9077 51.339 93.2907 49.722 92.0939 47.6594C90.9226 45.5968 90.3369 43.254 90.3369 40.6312ZM143.07 27.3388V54H137.723V42.6556H126.302V54H120.954V27.3388H126.302V38.3012H137.723V27.3388H143.07ZM153.681 31.655V38.3394H162.657V42.5792H153.681V49.6456H163.803V54H148.334V27.3006H163.803V31.655H153.681ZM184.629 54L178.861 45.0238L173.628 54H167.593L175.996 40.5548L167.479 27.3388H173.628L179.396 36.2768L184.591 27.3388H190.626L182.261 40.7458L190.779 54H184.629Z" fill="white"/>
<path d="M197.216 54.2674C196.249 54.2674 195.447 53.9745 194.81 53.3889C194.199 52.7777 193.893 52.0265 193.893 51.1353C193.893 50.244 194.199 49.5055 194.81 48.9199C195.447 48.3087 196.249 48.0031 197.216 48.0031C198.159 48.0031 198.935 48.3087 199.546 48.9199C200.158 49.5055 200.463 50.244 200.463 51.1353C200.463 52.0265 200.158 52.7777 199.546 53.3889C198.935 53.9745 198.159 54.2674 197.216 54.2674ZM221.119 48.9199H210.5L208.743 54H203.128L212.715 27.3006H218.941L228.529 54H222.876L221.119 48.9199ZM219.667 44.6418L215.809 33.4885L211.951 44.6418H219.667ZM237.46 27.3388V54H232.112V27.3388H237.46Z" fill="#FF9900"/>
<path d="M0 33.7053C0 52.2905 15.3838 67.4106 34.2932 67.4106C53.2025 67.4106 68.5864 52.2905 68.5864 33.7053C68.5864 30.1126 68.0115 26.6494 66.9474 23.3999L61.6085 28.6514C61.9215 30.2896 62.0853 31.979 62.0853 33.7053C62.0853 48.7672 49.6179 61.021 34.2932 61.021C18.9685 61.021 6.50108 48.7672 6.50108 33.7053C6.50108 18.6433 18.9685 6.38963 34.2932 6.38963C40.8893 6.38963 46.956 8.65979 51.7271 12.4469L56.3411 7.90847C50.3756 2.97527 42.6813 0 34.2932 0C15.3838 0 0 15.1201 0 33.7053Z" fill="white"/>
<path d="M82.2619 76.3958C83.5312 77.6434 83.5312 79.6664 82.2619 80.9141C81.627 81.5379 80.7954 81.8497 79.9634 81.8497C79.1314 81.8497 78.2995 81.5379 77.6648 80.9141L63.1186 66.6173C61.8493 65.3697 61.8493 63.3468 63.1186 62.099C64.388 60.8513 66.4462 60.8513 67.7157 62.099L82.2619 76.3958Z" fill="white"/>
<path d="M37.0073 35.3703L24.6189 23.1943C23.3494 21.9466 21.2912 21.9466 20.0218 23.1943C18.7525 24.4421 18.7525 26.465 20.0218 27.7126L34.568 42.0094C34.8564 42.2928 35.1855 42.5119 35.5369 42.6665C36.0107 42.9128 36.5333 43.0359 37.0561 43.0359C37.8881 43.0359 38.72 42.7241 39.3547 42.1003L72.2887 9.71707C73.558 8.4695 73.558 6.44654 72.2887 5.19881C71.0194 3.95107 68.9611 3.95107 67.6916 5.19881L37.0073 35.3703Z" fill="white"/>
</svg>
