<svg width="365" height="83" viewBox="0 0 365 83" fill="none" xmlns="http://www.w3.org/2000/svg">
<path d="M118.704 63.3449L106.542 43.8577H100.944V63.3449H93.0664V14.5579H110.273C115.847 14.5579 120.063 15.9169 122.919 18.635C125.821 21.353 127.273 24.9464 127.273 29.4151C127.273 33.2388 126.19 36.3715 124.025 38.8132C121.906 41.2548 118.819 42.8212 114.765 43.5122L127.549 63.3449H118.704ZM100.944 38.2603H109.651C116.009 38.2603 119.187 35.4501 119.187 29.8297C119.187 27.1577 118.404 25.0846 116.838 23.6104C115.318 22.0901 112.922 21.33 109.651 21.33H100.944V38.2603Z" fill="white"/>
<path d="M138.098 25.2689V63.3449H130.22V28.9314L138.098 25.2689Z" fill="white"/>
<path d="M158.757 24.7852C162.212 24.7852 165.16 25.6374 167.602 27.342C170.044 29.0465 171.771 31.3039 172.785 34.1141V27.8334L180.663 25.2689V63.7595C180.663 67.3068 179.925 70.4394 178.451 73.1575C177.023 75.9216 174.95 78.0869 172.232 79.6532C169.514 81.2196 166.289 82.0027 162.557 82.0027C157.213 82.0027 152.883 80.7359 149.566 78.2021C146.295 75.6683 144.245 72.2362 143.416 67.9057H151.224C151.869 70.163 153.113 71.9136 154.956 73.1575C156.799 74.4474 159.148 75.0924 162.005 75.0924C165.137 75.0924 167.717 74.125 169.744 72.1901C171.771 70.2552 172.785 67.445 172.785 63.7595V54.4996C171.771 57.3098 170.044 59.5672 167.602 61.2717C165.16 62.9763 162.212 63.8286 158.757 63.8286C155.44 63.8286 152.468 63.0454 149.842 61.4791C147.263 59.9127 145.236 57.6553 143.761 54.7069C142.287 51.7585 141.55 48.2803 141.55 44.2723C141.55 40.3104 142.287 36.8552 143.761 33.9068C145.236 30.9584 147.263 28.701 149.842 27.1347C152.468 25.5683 155.44 24.7852 158.757 24.7852ZM161.175 31.6955C157.674 31.6955 154.864 32.8242 152.745 35.0816C150.672 37.2929 149.635 40.3565 149.635 44.2723C149.635 48.1882 150.672 51.2748 152.745 53.5322C154.864 55.7435 157.674 56.8491 161.175 56.8491C163.387 56.8491 165.368 56.3424 167.118 55.3289C168.869 54.2693 170.251 52.7951 171.264 50.9063C172.278 49.0174 172.785 46.8061 172.785 44.2723C172.785 41.7846 172.278 39.5963 171.264 37.7075C170.251 35.7726 168.869 34.2984 167.118 33.2849C165.368 32.2253 163.387 31.6955 161.175 31.6955Z" fill="white"/>
<path d="M207.254 24.647C211.676 24.647 215.224 26.0751 217.896 28.9314C220.568 31.7876 221.904 35.8648 221.904 41.1627V63.3449H214.026V41.9919C214.026 38.5828 213.151 35.9569 211.4 34.1141C209.649 32.2253 207.254 31.2809 204.213 31.2809C201.081 31.2809 198.57 32.2944 196.681 34.3214C194.792 36.3024 193.848 39.2278 193.848 43.0976V63.3449H185.97V14.5579L193.848 12.2084V33.6304C194.861 30.7741 196.566 28.5628 198.961 26.9965C201.357 25.4301 204.121 24.647 207.254 24.647Z" fill="white"/>
<path d="M246.112 56.5036V63.3449H241.275C237.221 63.3449 234.134 62.3774 232.015 60.4425C229.942 58.4615 228.905 55.1907 228.905 50.6298V31.9719H223.446V25.2689H228.905V18.7041L236.852 15.8017V25.2689H246.043V31.9719H236.852V50.7681C236.852 52.9333 237.244 54.4305 238.027 55.2598C238.856 56.089 240.284 56.5036 242.311 56.5036H246.112Z" fill="white"/>
<path d="M288.112 14.5579V63.3449H280.165V41.4391H257.223V63.3449H249.345V17.276L257.223 14.5579V35.0125H280.165V17.276L288.112 14.5579Z" fill="white"/>
<path d="M313.969 32.7321C315.259 30.2443 317.102 28.2864 319.497 26.8583C321.893 25.3841 324.657 24.647 327.79 24.647V33.2158H325.44C321.985 33.2158 319.198 34.0681 317.079 35.7726C315.005 37.4311 313.969 40.1952 313.969 44.065V63.3449H306.091V27.8334L313.969 25.2689V32.7321Z" fill="white"/>
<path d="M364.581 42.4756C364.581 43.7656 364.489 44.8943 364.305 45.8617H335.005C335.143 49.7776 336.226 52.6799 338.253 54.5687C340.28 56.4576 342.791 57.402 345.785 57.402C348.411 57.402 350.622 56.734 352.419 55.398C354.262 54.062 355.39 52.2883 355.805 50.077H364.236C363.729 52.749 362.669 55.1216 361.057 57.1947C359.445 59.2678 357.348 60.9032 354.769 62.101C352.189 63.2527 349.309 63.8286 346.131 63.8286C342.445 63.8286 339.174 63.0454 336.318 61.4791C333.508 59.9127 331.296 57.6553 329.684 54.7069C328.072 51.7585 327.265 48.2803 327.265 44.2723C327.265 40.3104 328.072 36.8552 329.684 33.9068C331.296 30.9584 333.508 28.701 336.318 27.1347C339.174 25.5683 342.445 24.7852 346.131 24.7852C349.862 24.7852 353.11 25.5683 355.874 27.1347C358.684 28.655 360.827 30.7741 362.301 33.4922C363.821 36.1642 364.581 39.1587 364.581 42.4756ZM356.634 42.2683C356.726 39.7806 356.289 37.7075 355.321 36.049C354.4 34.3445 353.11 33.1006 351.452 32.3174C349.839 31.4882 348.066 31.0736 346.131 31.0736C343.044 31.0736 340.464 32.018 338.391 33.9068C336.318 35.7957 335.189 38.5828 335.005 42.2683H356.634Z" fill="white"/>
<path d="M138.098 17.4525V23.4338L130.22 26.8736V21.1149L138.098 17.4525Z" fill="white"/>
<path d="M301.367 25.2689V63.3449H293.489V28.9314L301.367 25.2689Z" fill="white"/>
<path d="M301.367 17.4525V23.4338L293.489 26.8736V21.1149L301.367 17.4525Z" fill="white"/>
<path d="M0 38.3908C0 17.1882 17.1881 0 38.3908 0H65.2643C71.6251 0 76.7816 5.15644 76.7816 11.5172V38.3907C76.7816 59.5934 59.5934 76.7816 38.3908 76.7816H11.5172C5.15645 76.7816 0 71.6251 0 65.2643V38.3908Z" fill="url(#paint0_linear_21_4327)"/>
<path d="M57.5861 38.5428V40.3088C57.5837 44.4481 56.2434 48.4758 53.7649 51.7911C51.2865 55.1065 47.8027 57.5318 43.8333 58.7055C39.8638 59.8791 35.6213 59.7382 31.7385 58.3037C27.8557 56.8692 24.5406 54.218 22.2876 50.7455C20.0347 47.2729 18.9646 43.1652 19.2369 39.0348C19.5093 34.9045 21.1095 30.9728 23.7989 27.8262C26.4883 24.6796 30.1228 22.4866 34.1604 21.5744C38.198 20.6621 42.4222 21.0795 46.2032 22.7642" stroke="white" stroke-width="3.83908" stroke-linecap="round" stroke-linejoin="round"/>
<path d="M66.2238 17.2748L38.3905 44.1675L32.6318 38.4089" stroke="white" stroke-width="3.83908" stroke-linecap="round" stroke-linejoin="round"/>
<defs>
<linearGradient id="paint0_linear_21_4327" x1="70.0632" y1="-6.7933e-07" x2="-2.00223e-07" y2="76.7816" gradientUnits="userSpaceOnUse">
<stop stop-color="#49CCF9"/>
<stop offset="0.48" stop-color="#474EDC"/>
<stop offset="1" stop-color="#6782FB"/>
</linearGradient>
</defs>
</svg>
