<svg width="34" height="34" viewBox="0 0 34 34" fill="none" xmlns="http://www.w3.org/2000/svg">
<g clip-path="url(#clip0_21_4241)">
<path d="M17 21.25C19.3472 21.25 21.25 19.3472 21.25 17C21.25 14.6528 19.3472 12.75 17 12.75C14.6528 12.75 12.75 14.6528 12.75 17C12.75 19.3472 14.6528 21.25 17 21.25Z" stroke="white" stroke-width="2" stroke-linecap="round" stroke-linejoin="round"/>
<path d="M27.4837 21.2501C27.2951 21.6774 27.2388 22.1514 27.3222 22.6109C27.4055 23.0705 27.6246 23.4945 27.9512 23.8284L28.0362 23.9134C28.2996 24.1766 28.5086 24.489 28.6512 24.833C28.7937 25.177 28.8671 25.5457 28.8671 25.918C28.8671 26.2903 28.7937 26.659 28.6512 27.003C28.5086 27.347 28.2996 27.6594 28.0362 27.9226C27.773 28.186 27.4605 28.395 27.1166 28.5376C26.7726 28.6802 26.4039 28.7536 26.0316 28.7536C25.6592 28.7536 25.2905 28.6802 24.9466 28.5376C24.6026 28.395 24.2901 28.186 24.027 27.9226L23.942 27.8376C23.6081 27.511 23.1841 27.2919 22.7245 27.2086C22.2649 27.1252 21.7909 27.1815 21.3637 27.3701C20.9447 27.5497 20.5873 27.8478 20.3356 28.2279C20.0839 28.608 19.9488 29.0534 19.947 29.5092V29.7501C19.947 30.5015 19.6485 31.2222 19.1171 31.7535C18.5858 32.2849 17.8651 32.5834 17.1137 32.5834C16.3622 32.5834 15.6415 32.2849 15.1102 31.7535C14.5788 31.2222 14.2803 30.5015 14.2803 29.7501V29.6226C14.2694 29.1537 14.1176 28.6989 13.8447 28.3174C13.5719 27.9359 13.1905 27.6453 12.7503 27.4834C12.323 27.2948 11.8491 27.2386 11.3895 27.3219C10.9299 27.4052 10.5059 27.6243 10.172 27.9509L10.087 28.0359C9.82385 28.2993 9.51137 28.5083 9.16741 28.6509C8.82344 28.7935 8.45475 28.8669 8.08241 28.8669C7.71006 28.8669 7.34137 28.7935 6.99741 28.6509C6.65345 28.5083 6.34097 28.2993 6.07783 28.0359C5.81439 27.7728 5.60541 27.4603 5.46282 27.1163C5.32024 26.7724 5.24685 26.4037 5.24685 26.0313C5.24685 25.659 5.32024 25.2903 5.46282 24.9463C5.60541 24.6024 5.81439 24.2899 6.07783 24.0267L6.16283 23.9417C6.48942 23.6079 6.7085 23.1838 6.79183 22.7242C6.87516 22.2647 6.8189 21.7907 6.63033 21.3634C6.45074 20.9444 6.15256 20.5871 5.77248 20.3353C5.39241 20.0836 4.94702 19.9486 4.49116 19.9467H4.25033C3.49888 19.9467 2.77821 19.6482 2.24686 19.1169C1.7155 18.5855 1.41699 17.8649 1.41699 17.1134C1.41699 16.362 1.7155 15.6413 2.24686 15.1099C2.77821 14.5786 3.49888 14.2801 4.25033 14.2801H4.37783C4.84673 14.2691 5.3015 14.1173 5.683 13.8445C6.0645 13.5716 6.35509 13.1903 6.51699 12.7501C6.70557 12.3228 6.76183 11.8488 6.6785 11.3892C6.59517 10.9297 6.37609 10.5056 6.04949 10.1717L5.96449 10.0867C5.70106 9.82361 5.49208 9.51112 5.34949 9.16716C5.2069 8.8232 5.13351 8.45451 5.13351 8.08216C5.13351 7.70982 5.2069 7.34113 5.34949 6.99717C5.49208 6.65321 5.70106 6.34072 5.96449 6.07758C6.22763 5.81415 6.54012 5.60516 6.88408 5.46258C7.22804 5.31999 7.59673 5.2466 7.96908 5.2466C8.34142 5.2466 8.71011 5.31999 9.05407 5.46258C9.39803 5.60516 9.71052 5.81415 9.97366 6.07758L10.0587 6.16258C10.3925 6.48917 10.8166 6.70826 11.2762 6.79159C11.7357 6.87491 12.2097 6.81866 12.637 6.63008H12.7503C13.1693 6.4505 13.5267 6.15232 13.7784 5.77224C14.0301 5.39216 14.1652 4.94678 14.167 4.49091V4.25008C14.167 3.49863 14.4655 2.77797 14.9969 2.24661C15.5282 1.71526 16.2489 1.41675 17.0003 1.41675C17.7518 1.41675 18.4724 1.71526 19.0038 2.24661C19.5351 2.77797 19.8337 3.49863 19.8337 4.25008V4.37758C19.8355 4.83345 19.9706 5.27883 20.2223 5.65891C20.474 6.03899 20.8313 6.33717 21.2503 6.51675C21.6776 6.70533 22.1516 6.76158 22.6112 6.67825C23.0707 6.59493 23.4948 6.37584 23.8287 6.04925L23.9137 5.96425C24.1768 5.70081 24.4893 5.49183 24.8332 5.34925C25.1772 5.20666 25.5459 5.13327 25.9182 5.13327C26.2906 5.13327 26.6593 5.20666 27.0032 5.34925C27.3472 5.49183 27.6597 5.70081 27.9228 5.96425C28.1863 6.22739 28.3952 6.53987 28.5378 6.88383C28.6804 7.22779 28.7538 7.59649 28.7538 7.96883C28.7538 8.34118 28.6804 8.70987 28.5378 9.05383C28.3952 9.39779 28.1863 9.71027 27.9228 9.97341L27.8378 10.0584C27.5112 10.3923 27.2921 10.8164 27.2088 11.2759C27.1255 11.7355 27.1817 12.2095 27.3703 12.6367V12.7501C27.5499 13.1691 27.8481 13.5264 28.2282 13.7781C28.6082 14.0299 29.0536 14.1649 29.5095 14.1667H29.7503C30.5018 14.1667 31.2224 14.4653 31.7538 14.9966C32.2851 15.528 32.5837 16.2486 32.5837 17.0001C32.5837 17.7515 32.2851 18.4722 31.7538 19.0035C31.2224 19.5349 30.5018 19.8334 29.7503 19.8334H29.6228C29.167 19.8352 28.7216 19.9703 28.3415 20.222C27.9614 20.4737 27.6632 20.8311 27.4837 21.2501V21.2501Z" stroke="white" stroke-width="2" stroke-linecap="round" stroke-linejoin="round"/>
</g>
<defs>
<clipPath id="clip0_21_4241">
<rect width="34" height="34" fill="white"/>
</clipPath>
</defs>
</svg>
